# xmcd CD database file
#
# Track frame offsets:
#	150
#	19572
#	36232
#	57790
#	68757
#	88465
#	112252
#	130192
#	150982
#	168590
#	187737
#	208272
#
# Disc length: 2983 seconds
#
# Revision: 0
# Processed by: cddbd v1.5.1PL0 Copyright (c) Steve Scherf et al.
# Submitted via: CDex 1.51
#
DISCID=a20ba50c
DTITLE=Pinc and Pinc - Et colégram
DYEAR=1995
DGENRE=Jazz
TTITLE0=Honeysuckle Rose
TTITLE1=Lady Be Good
TTITLE2=Nuages
TTITLE3=Souvenirs de Villigen
TTITLE4=Old Man River
TTITLE5=Flamingo
TTITLE6=Swing 42
TTITLE7=On the Sunny Side of the Street
TTITLE8=Et Colégram
TTITLE9=The Man I Love
TTITLE10=Minor Swing
TTITLE11=Sweet Georgia Brown
EXTD=YEAR: 1995
EXTT0=
EXTT1=
EXTT2=
EXTT3=
EXTT4=
EXTT5=
EXTT6=
EXTT7=
EXTT8=
EXTT9=
EXTT10=
EXTT11=
PLAYORDER=
